<svg xmlns="http://www.w3.org/2000/svg" width="38.147" height="38" viewBox="0 0 38.147 38">
    <g data-name="Capa 2">
        <g data-name="Capa 1">
            <path data-name="Trazado 393" d="M0 61.771v-.552c.145-.364.293-.728.438-1.1a1.06 1.06 0 0 1 1.46-.681c.783.262.783.258 1.3-.356a4.625 4.625 0 0 1 .56-.548.344.344 0 0 0 .106-.5 3.882 3.882 0 0 1-.293-.65 1.021 1.021 0 0 1 .462-1.237 10.253 10.253 0 0 1 1.209-.556.939.939 0 0 1 1.28.5c.254.716.634.841 1.389.81s1.115-.176 1.319-.912a.97.97 0 0 1 1.311-.579c.364.117.728.247 1.08.391a1.045 1.045 0 0 1 .618 1.354c-.09.278-.3.587-.235.83s.391.368.614.56.466.618.751.681.6-.231.916-.344a.986.986 0 0 1 1.237.477 10.851 10.851 0 0 1 .567 1.225.959.959 0 0 1-.544 1.268c-.7.247-.826.626-.783 1.358s.133 1.143.9 1.33a.959.959 0 0 1 .591 1.3c-.121.391-.262.755-.415 1.123a1.049 1.049 0 0 1-1.362.56.924.924 0 0 0-1.389.427c-.16.282-.6.45-.653.724s.227.6.337.912a1.013 1.013 0 0 1-.517 1.291c-.348.18-.712.344-1.076.5a.974.974 0 0 1-1.4-.5c-.25-.689-.607-.806-1.334-.783s-1.174.18-1.37.951a.943.943 0 0 1-1.244.555c-.391-.117-.751-.258-1.115-.391a.974.974 0 0 1-.607-1.358c.317-.653.117-.97-.391-1.456-.556-.56-.978-.74-1.663-.325a.9.9 0 0 1-1.217-.391 9.282 9.282 0 0 1-.595-1.3.939.939 0 0 1 .54-1.26.946.946 0 0 0 .732-1.362.344.344 0 0 1 0-.11c0-.282.1-.626-.027-.83s-.47-.235-.728-.317A1.26 1.26 0 0 1 0 61.771zm12.3 1.71a4.093 4.093 0 1 0 .016 0z" transform="translate(0 -33.668)" style="fill:rgba(255,255,255,.75)"/>
            <path data-name="Trazado 394" d="M31.718 7.323c.751-.783 1.444-1.479 2.121-2.2a.427.427 0 0 0 .061-.363c-.149-.391-.34-.743-.5-1.119a1.757 1.757 0 0 1 .892-2.426c.56-.27 1.119-.532 1.69-.783a1.749 1.749 0 0 1 2.375.884c.184.364.356.736.513 1.115a.333.333 0 0 0 .391.235c.912-.055 1.827-.074 2.739-.121a.391.391 0 0 0 .286-.184c.16-.364.282-.74.423-1.111A1.8 1.8 0 0 1 45.132.115c.56.2 1.119.391 1.675.618a1.753 1.753 0 0 1 1.076 2.324c-.133.391-.3.783-.423 1.174a.446.446 0 0 0 .1.36q1 .963 2.043 1.89a.391.391 0 0 0 .337.063c.391-.149.743-.333 1.115-.5a1.753 1.753 0 0 1 2.453.888c.266.548.524 1.1.783 1.655a1.749 1.749 0 0 1-.9 2.422 18.14 18.14 0 0 1-1.08.493c-.192.082-.231.18-.219.391.051.9.078 1.8.094 2.7 0 .188.039.286.231.348.391.125.783.278 1.15.427a1.753 1.753 0 0 1 1.084 2.348c-.2.575-.391 1.143-.626 1.71a1.761 1.761 0 0 1-2.348 1.088c-.454-.157-.9-.333-1.323-.485L48.1 22.458c.168.36.36.783.548 1.174a1.772 1.772 0 0 1-.943 2.551c-.5.235-1.006.473-1.518.7a1.777 1.777 0 0 1-2.5-.923c-.172-.356-.317-.724-.509-1.072a.427.427 0 0 0-.329-.18c-.888.023-1.777.09-2.669.1a.385.385 0 0 0-.446.313c-.129.391-.274.783-.442 1.174a1.7 1.7 0 0 1-2.172.994q-.986-.317-1.957-.716a1.71 1.71 0 0 1-1-2.172c.133-.438.321-.857.454-1.3a.427.427 0 0 0-.106-.36c-.661-.63-1.346-1.237-2.007-1.87a.3.3 0 0 0-.391-.074c-.356.176-.716.344-1.08.5a1.765 1.765 0 0 1-2.453-.9q-.391-.8-.743-1.62a1.749 1.749 0 0 1 .9-2.45c.364-.18.747-.333 1.107-.524a.442.442 0 0 0 .172-.329c0-.912-.067-1.827-.082-2.739a.3.3 0 0 0-.239-.348 18.024 18.024 0 0 1-1.174-.438 1.733 1.733 0 0 1-1.053-2.3q.3-.88.638-1.745a1.792 1.792 0 0 1 2.36-1.074c.434.196.88.356 1.252.493zM41 20.627a6.953 6.953 0 1 0-6.425-4.4 6.989 6.989 0 0 0 6.425 4.4z" transform="translate(-16.637 .029)" style="fill:rgba(255,255,255,.75)"/>
            <path data-name="Trazado 395" d="M46.645 81.032a8.738 8.738 0 0 0-.661-.618.423.423 0 0 0-.352 0c-.3.121-.618.258-.853-.035a1.327 1.327 0 0 1-.411-1.174.716.716 0 0 1 .391-.391.423.423 0 0 0 .305-.567.211.211 0 0 1 0-.11c.09-.423-.074-.646-.5-.783a.509.509 0 0 1-.317-.7 4.472 4.472 0 0 1 .211-.595.563.563 0 0 1 .837-.34c.321.133.536.106.7-.2a.552.552 0 0 1 .18-.188c.239-.16.25-.333.121-.591-.231-.462-.113-.736.34-.959a4.489 4.489 0 0 1 .442-.2.548.548 0 0 1 .783.305c.145.391.356.489.724.368a.055.055 0 0 1 .035 0 .528.528 0 0 0 .712-.462.462.462 0 0 1 .117-.184c.254-.27.7-.235 1.276.09a.6.6 0 0 1 .274.783c-.043.145-.133.364-.067.442a3.913 3.913 0 0 0 .708.638c.051.039.2-.047.305-.09.52-.223.783-.133 1.01.391.047.1.094.2.137.305.2.454.106.743-.348.935-.274.113-.391.247-.305.548a.473.473 0 0 1 0 .223c-.059.344.055.528.415.638a.567.567 0 0 1 .391.783 5.057 5.057 0 0 1-.168.454c-.184.458-.446.591-.9.391-.278-.113-.462-.1-.607.176a.45.45 0 0 1-.145.164c-.3.2-.321.423-.157.743a.563.563 0 0 1-.3.833 4.454 4.454 0 0 1-.438.2c-.454.192-.736.1-.927-.356-.117-.286-.266-.391-.56-.305a.563.563 0 0 1-.254 0c-.337-.082-.477.074-.579.391-.145.43-.419.536-.853.391l-.313-.113c-.579-.16-.693-.4-.493-.967.039-.088.066-.178.094-.264zM51.047 78a1.669 1.669 0 1 0 .012.02z" transform="translate(-26.907 -44.684)" style="fill:rgba(255,255,255,.75)"/>
        </g>
    </g>
</svg>
