<svg xmlns="http://www.w3.org/2000/svg" width="23.437" height="23.438" viewBox="0 0 23.437 23.438">
    <g data-name="Capa 1">
        <path data-name="Trazado 339" d="M23.437 128.876a4.487 4.487 0 0 1-.174.516 1.9 1.9 0 0 1-1.794 1.162q-1.453.027-2.906 0a1.935 1.935 0 0 1-1.913-1.534c-.013-.05-.029-.1-.053-.179a1.963 1.963 0 0 1-1.51 1.657 2.56 2.56 0 0 1-.612.061q-2.734.006-5.469 0a2 2 0 0 1-2.171-1.709c-.021.074-.037.122-.05.174a1.923 1.923 0 0 1-1.892 1.529c-.983.02-1.968.023-2.951 0a1.939 1.939 0 0 1-1.943-2v-.907c.1 0 .179-.011.259-.011h22.951c.076 0 .152.007.228.011z" transform="translate(0 -119.825)" style="fill:#fff"/>
        <path data-name="Trazado 340" d="M136.765 0c.192.978.382 1.951.575 2.925.248 1.244.5 2.489.748 3.733a1.555 1.555 0 0 1 .015.19h-7.383c.092-.472.18-.928.272-1.382L132.069.09a.641.641 0 0 0 .007-.09z" transform="translate(-122.726)" style="fill:#fff"/>
        <path data-name="Trazado 341" d="M11.046 0c-.166.809-.336 1.618-.5 2.428q-.418 2.086-.831 4.172c-.012.061-.03.117-.048.188H3.91l.372-1.3c.428-1.516.873-3.029 1.291-4.55A1.193 1.193 0 0 1 6.4 0z" transform="translate(-3.671)" style="fill:#fff"/>
        <path data-name="Trazado 342" d="M266.037 0a1.2 1.2 0 0 1 .832.944c.526 1.9 1.073 3.782 1.612 5.672.021.072.038.144.061.234h-5.807c-.109-.542-.22-1.087-.328-1.632L261.382.086A.521.521 0 0 0 261.35 0z" transform="translate(-245.368)" style="fill:#fff"/>
        <path data-name="Trazado 343" d="M18.194 191.635c-.707 0-1.386.02-2.064-.007a.944.944 0 0 1-.862-.871 2.032 2.032 0 0 1-.009-.252v-10.737l.169.018a8.26 8.26 0 0 0 .9.115c.777.017 1.555-.013 2.331.01a3.262 3.262 0 0 0 2.446-.752 2.874 2.874 0 0 0 1.32.668 4.193 4.193 0 0 0 .747.075c1.79.006 3.581-.011 5.371.009a3.246 3.246 0 0 0 2.316-.75 2.906 2.906 0 0 0 1.314.665 4.042 4.042 0 0 0 .7.076c.937.009 1.874.013 2.813 0 .337-.006.673-.073 1.033-.116v10.7a1 1 0 0 1-1.134 1.142H25.043v-8.608a1.835 1.835 0 0 0-.051-.475.936.936 0 0 0-.928-.679q-2.439-.007-4.878 0a.958.958 0 0 0-.987.938c-.006.083 0 .168 0 .251v8.579zm12.217-4.892h2.356a.979.979 0 0 0 1.067-1.068v-2.746a.978.978 0 0 0-1.074-1.06h-4.69a.981.981 0 0 0-1.077 1.079v2.7a.986.986 0 0 0 1.085 1.1h2.333z" transform="translate(-14.326 -168.204)" style="fill:#fff"/>
    </g>
</svg>
