<svg xmlns="http://www.w3.org/2000/svg" width="23.815" height="21.141" viewBox="0 0 23.815 21.141">
    <g data-name="Capa 1">
        <path data-name="Trazado 336" d="M.634 8.3c.837-.036 1.676-.014 2.514-.017h.287c.01-.085.017-.136.02-.189q.192-3.885.376-7.774c.011-.25.077-.32.332-.32q7.7.012 15.4.005h.287c.009.085.017.137.019.189.126 2.591.254 5.181.369 7.771.011.249.078.328.332.32.829-.014 1.66-.03 2.488.007 1.38.061.589 12.849-.28 12.849H.947C.115 21.146-.546 8.351.634 8.3zM4.29.432l-.467 9.629h-.434c-.335 0 17.138-.015 16.8 0-.234.013-.313-.054-.32-.3-.12-2.749-.254-5.5-.384-8.245-.017-.358-.04-.717-.062-1.089zM18.576 13.3a1.1 1.1 0 1 0 1.078 1.131 1.1 1.1 0 0 0-1.078-1.131zm-3.353-.064a1.1 1.1 0 1 0 1.077 1.133 1.1 1.1 0 0 0-1.077-1.131z" transform="translate(.006)" style="fill:#fff"/>
        <path data-name="Trazado 337" d="M58.13 26.9v-.85h11.4v.85z" transform="translate(-51.936 -23.275)" style="fill:#fff"/>
        <path data-name="Trazado 338" d="M69.53 47.05v.85h-11.4v-.85z" transform="translate(-51.936 -42.037)" style="fill:#fff"/>
    </g>
</svg>
