<svg xmlns="http://www.w3.org/2000/svg" width="16.096" height="21.141" viewBox="0 0 16.096 21.141">
    <path data-name="Trazado 1" d="M10.774 21.138H10.4c-.226-.16-.467-.3-.676-.482-.51-.439-1.009-.89-1.5-1.345a.212.212 0 0 0-.345 0c-.5.459-1.005.915-1.52 1.358-.2.175-.44.313-.661.469h-.374a5.791 5.791 0 0 1-.627-.416 64.351 64.351 0 0 1-1.586-1.416c-.121-.111-.2-.119-.328-.005-.4.367-.815.72-1.219 1.084a.9.9 0 0 1-1.025.209.907.907 0 0 1-.539-.918V1.451a.9.9 0 0 1 .531-.9.89.89 0 0 1 1.025.2c.389.35.79.686 1.171 1.044.156.146.258.16.424.006C3.679 1.306 4.224.83 4.763.349a.941.941 0 0 1 1.468 0c.547.492 1.1.979 1.643 1.476a.212.212 0 0 0 .345 0C8.777 1.318 9.345.817 9.908.312a.915.915 0 0 1 1.375 0c.566.5 1.134 1 1.691 1.515.138.127.226.12.359 0 .395-.363.8-.714 1.2-1.07a1 1 0 0 1 .6-.28.908.908 0 0 1 .953 1v18.205a.907.907 0 0 1-.54.917.9.9 0 0 1-1.024-.21c-.4-.363-.818-.716-1.219-1.083-.125-.114-.207-.1-.328.006-.512.469-1.027.937-1.555 1.388a6.61 6.61 0 0 1-.658.443zM8.05 10.973h4.541a1.222 1.222 0 0 0 .306-.031.355.355 0 0 0 .28-.362c.008-.272-.179-.413-.545-.413H3.467a1.014 1.014 0 0 0-.265.03.387.387 0 0 0 0 .744 1.188 1.188 0 0 0 .306.031h4.541zm.022 2.2H3.49a1.517 1.517 0 0 0-.226.008.387.387 0 0 0-.342.4.382.382 0 0 0 .36.381 2.056 2.056 0 0 0 .206.007h9.122a1.705 1.705 0 0 0 .226-.009.381.381 0 0 0 .338-.437c-.024-.223-.191-.348-.479-.348H8.072zM5.778 7.97h2.436c.333 0 .527-.223.452-.508-.05-.19-.208-.284-.49-.284H3.428a1.017 1.017 0 0 0-.205.014.391.391 0 0 0-.257.567.444.444 0 0 0 .438.213h2.374z" transform="translate(0 .003)" style="fill:#fff"/>
</svg>
