<?xml version="1.0" encoding="iso-8859-1"?>
<svg xmlns="http://www.w3.org/2000/svg" xmlns:xlink="http://www.w3.org/1999/xlink" viewBox="0,0,256,256" width="48px" height="48px" fill-rule="nonzero">
<defs>
    <linearGradient x1="32.05" y1="5.05" x2="41.95" y2="14.95" gradientUnits="userSpaceOnUse" id="color-1">
        <stop offset="0" stop-color="#33bef0"></stop>
        <stop offset="1" stop-color="#0a85d9"></stop>
    </linearGradient>
    <linearGradient x1="32.05" y1="33.05" x2="41.95" y2="42.95" gradientUnits="userSpaceOnUse" id="color-2">
        <stop offset="0" stop-color="#33bef0"></stop>
        <stop offset="1" stop-color="#0a85d9"></stop>
    </linearGradient>
    <linearGradient x1="6.05" y1="19.05" x2="15.95" y2="28.95" gradientUnits="userSpaceOnUse" id="color-3">
        <stop offset="0" stop-color="#33bef0"></stop>
        <stop offset="1" stop-color="#0a85d9"></stop>
    </linearGradient>
</defs>
<g transform="translate(-16,-16) scale(1.125,1.125)">
    <g fill-rule="nonzero"  stroke-width="1" troke-linecap="butt" stroke-linejoin="miter"  stroke-miterlimit="10" stroke-dasharray="" stroke-dashoffset="0" style="mix-blend-mode: normal">
       <g transform="scale(5.33333,5.33333)"> 
            <path d="M35.85,40.219l-27,-14c-0.829,-0.429 -1.35,-1.285 -1.35,-2.219c0,-0.934 0.521,-1.79 1.35,-2.219l27,-14l2.301,4.438l-22.72,11.781l22.72,11.781z" fill="#64717c"></path>
            <path d="M38.15,12.22l-6.27,3.25l-0.47,0.24c-1.2,-1.17 -2.03,-2.71 -2.31,-4.43l0.48,-0.25l6.27,-3.25z" fill="#000000" opacity="0.05"></path>
            <path d="M38.15,12.22l-6.27,3.25c-1.23,-1.14 -2.07,-2.7 -2.3,-4.44l6.27,-3.25z" fill="#000000" opacity="0.07"></path>
            <path d="M38.15,35.78l-6.27,-3.25l-0.47,-0.24c-1.2,1.17 -2.03,2.71 -2.31,4.43l0.48,0.25l6.27,3.25z" fill="#000000" opacity="0.05"></path>
            <path d="M38.15,35.78l-6.27,-3.25c-1.23,1.14 -2.07,2.7 -2.3,4.44l6.27,3.25z"
            fill="#000000"
            opacity="0.07">
            </path>
            <circle cx="37" cy="10" r="7" fill="url(#color-1)"></circle>
            <circle cx="37" cy="38" r="7" fill="url(#color-2)"></circle>
            <path d="M18.35,25.51l0.46,0.24c-0.38,1.7 -1.3,3.19 -2.58,4.29l-0.47,-0.24l-6.91,-3.58c-0.83,-0.43 -1.35,-1.29 -1.35,-2.22c0,-0.93 0.52,-1.79 1.35,-2.22l6.91,-3.58l0.47,-0.24c1.28,1.1 2.2,2.59 2.58,4.29l-0.46,0.24l-2.92,1.51z" fill="#000000" opacity="0.05"></path><path d="M15.43,24l2.92,1.51c-0.35,1.71 -1.29,3.21 -2.59,4.29l-6.91,-3.58c-0.83,-0.43 -1.35,-1.29 -1.35,-2.22c0,-0.93 0.52,-1.79 1.35,-2.22l6.91,-3.58c1.3,1.08 2.24,2.58 2.59,4.29z" 
            fill="#000000" 
            opacity="0.07">
            </path>
            <circle cx="11" cy="24" r="7" fill="url(#color-3)"></circle> 
        </g>
    </g>
</g>
</svg>