<svg xmlns="http://www.w3.org/2000/svg" width="19.255" height="21.799" viewBox="0 0 19.255 21.799">
    <g data-name="Capa 1">
        <path data-name="Trazado 344" d="M15.2 14.115c.09-3.734-.711-4.515-4.265-4.775a17.018 17.018 0 0 1-4.225-.681C4.27 7.828 3.779 5.346 5.581 3.5l3-3a1.111 1.111 0 0 1 1.8-.04l8.389 8.4c.521.521.7 1.121.12 1.692-1.146 1.148-2.337 2.262-3.69 3.563z" transform="translate(-.002 -.019)" style="fill:#fff"/>
        <path data-name="Trazado 345" d="M3.634 7.93a3 3 0 0 1 .13.471c0 3 .831 3.864 3.934 4.124a22.074 22.074 0 0 1 3.9.531c3 .821 3.584 3.424 1.381 5.566-.941.921-1.9 1.822-2.843 2.753a1 1 0 0 1-1.652 0C5.746 18.511 3 15.678.27 12.785a1.622 1.622 0 0 1-.13-1.532c1.031-1.141 2.233-2.142 3.494-3.323z" transform="translate(-.006 -.011)" style="fill:#fff"/>
    </g>
</svg>
