<svg xmlns="http://www.w3.org/2000/svg" width="19.636" height="19.632" viewBox="0 0 19.636 19.632">
    <g data-name="Capa 2">
        <g data-name="Capa 1">
            <path data-name="Trazado 408" d="M19.636 9.123v1.23a1.808 1.808 0 0 0-.035.186 9.371 9.371 0 0 1-.8 3.137 9.845 9.845 0 0 1-13.473 4.688.461.461 0 0 0-.3-.034q-1.734.439-3.463.9c-.5.131-.992.273-1.486.41H0c.447-1.624.9-3.247 1.336-4.873a.47.47 0 0 0-.036-.318A9.7 9.7 0 0 1 .106 9.1a9.127 9.127 0 0 1 2.549-5.946A9.729 9.729 0 0 1 11.25.093a9.168 9.168 0 0 1 5.7 2.933 9.643 9.643 0 0 1 2.537 5.039c.062.351.101.706.149 1.058zM2.363 17.269c.085-.017.139-.025.193-.039.9-.232 1.793-.461 2.685-.7a.418.418 0 0 1 .355.055 8.135 8.135 0 0 0 12.261-8.411 8.135 8.135 0 0 0-16.12 1.44 7.952 7.952 0 0 0 1.347 4.539.35.35 0 0 1 .051.319c-.177.619-.347 1.241-.519 1.862-.084.3-.165.61-.254.94z" transform="translate(0 -.003)" style="fill:#00a46a"/>
            <path data-name="Trazado 409" d="M103.01 110.688a4.579 4.579 0 0 1-.7-.093 9.485 9.485 0 0 1-3.484-1.7 14.621 14.621 0 0 1-2.107-2.245 6.455 6.455 0 0 1-1.021-1.723 2.832 2.832 0 0 1 .639-3.131.833.833 0 0 1 .59-.282c.223-.009.447-.006.67 0a.416.416 0 0 1 .347.295c.127.279.241.564.359.845.154.37.307.742.468 1.111a.437.437 0 0 1-.029.454c-.184.26-.374.516-.573.764s-.222.329-.051.611a6.632 6.632 0 0 0 3.262 2.813c.294.118.4.1.6-.142q.348-.421.687-.849c.16-.2.25-.25.493-.162.263.095.517.216.774.327.393.171.789.339 1.178.515.277.125.3.192.3.488a2.124 2.124 0 0 1-2 2.049 3.608 3.608 0 0 1-.4.027z" transform="translate(-90.585 -96.313)" style="fill:#00a46a"/>
        </g>
    </g>
</svg>
